<?xml version="1.0" encoding="UTF-8"?>
<svg width="32px" height="32px" viewBox="0 0 32 32" version="1.1" xmlns="http://www.w3.org/2000/svg">
    <title>Vite Logo</title>
    <g stroke="none" stroke-width="1" fill="none" fill-rule="evenodd">
        <path d="M29.8842,6.0584 L16.0342,29.0584 C15.8952,29.2894 15.6672,29.4414 15.4142,29.4724 C15.1612,29.5024 14.9092,29.4084 14.7272,29.2154 L2.2272,16.2154 C1.9512,15.9254 1.8622,15.5014 2.0002,15.1234 C2.1382,14.7454 2.4772,14.4774 2.8752,14.4314 L15.3752,12.4314 C15.5852,12.4054 15.7992,12.4474 15.9842,12.5514 L28.9842,19.5514 C29.3402,19.7374 29.5662,20.1014 29.5662,20.5004 C29.5662,20.8994 29.3402,21.2624 28.9842,21.4484 L15.9842,28.4484 C15.7992,28.5524 15.5852,28.5944 15.3752,28.5684 L2.8752,26.5684 C2.4772,26.5224 2.1382,26.2544 2.0002,25.8764 C1.8622,25.4984 1.9512,25.0744 2.2272,24.7844 L14.7272,11.7844 C14.9092,11.5914 15.1612,11.4974 15.4142,11.5274 C15.6672,11.5584 15.8952,11.7104 16.0342,11.9414 L29.8842,34.9414 C30.0522,35.2124 30.0522,35.5574 29.8842,35.8284 C29.7162,36.0994 29.4002,36.2504 29.0752,36.2124 L2.0752,32.2124 C1.6672,32.1664 1.3372,31.8744 1.2222,31.4814 C1.1072,31.0884 1.2272,30.6644 1.5342,30.3914 L28.5342,6.3914 C28.7742,6.1754 29.1002,6.0924 29.4102,6.1664 C29.7192,6.2404 29.9672,6.4624 30.0752,6.7514 L31.9502,11.7514 C32.0872,12.1164 32.0142,12.5264 31.7592,12.8214 C31.5042,13.1174 31.1072,13.2414 30.7342,13.1414 L15.7342,9.1414 C15.4572,9.0644 15.2322,8.8674 15.1192,8.6024 C15.0072,8.3374 15.0182,8.0344 15.1502,7.7784 L19.1502,0.2784 C19.3112,-0.0326 19.6372,-0.2156 19.9912,-0.1986 C20.3452,-0.1816 20.6512,0.0364 20.7752,0.3674 L29.8842,6.0584 Z" fill="#646CFF" fill-rule="nonzero"></path>
    </g>
</svg>