<?xml version="1.0" encoding="UTF-8"?>
<svg width="32px" height="32px" viewBox="0 0 32 32" version="1.1" xmlns="http://www.w3.org/2000/svg">
    <title>React Logo</title>
    <g stroke="none" stroke-width="1" fill="none" fill-rule="evenodd">
        <path d="M16,13.3333 C17.4667,13.3333 18.6667,14.5333 18.6667,16 C18.6667,17.4667 17.4667,18.6667 16,18.6667 C14.5333,18.6667 13.3333,17.4667 13.3333,16 C13.3333,14.5333 14.5333,13.3333 16,13.3333 Z M16,21.3333 C18.9333,21.3333 21.3333,18.9333 21.3333,16 C21.3333,13.0667 18.9333,10.6667 16,10.6667 C13.0667,10.6667 10.6667,13.0667 10.6667,16 C10.6667,18.9333 13.0667,21.3333 16,21.3333 Z M16,8 C20.4,8 24,11.6 24,16 C24,20.4 20.4,24 16,24 C11.6,24 8,20.4 8,16 C8,11.6 11.6,8 16,8 Z M16,5.3333 C9.3333,5.3333 4,10.6667 4,16 C4,21.3333 9.3333,26.6667 16,26.6667 C22.6667,26.6667 28,21.3333 28,16 C28,10.6667 22.6667,5.3333 16,5.3333 Z" fill="#61DAFB" fill-rule="nonzero"></path>
    </g>
</svg>